<svg id="Camada_1" data-name="Camada 1" xmlns="http://www.w3.org/2000/svg" viewBox="0 0 794.08 312.03"><defs><style>.cls-1{fill:none;stroke:#1d1d1b;stroke-miterlimit:10;stroke-width:3px;}</style></defs><path class="cls-1" d="M5.1,159c-.32,1.28.29,2.4,10.52,14,6.88,7.82,8.12,9,9.92,10.51,1.35,1.1,1.51,1.12,11.68,7.59,7.77,4.94,9.1,5.83,12.26,7.59a83.16,83.16,0,0,0,9.35,4.67c.94.39,3.15,1.23,7.59,2.92,4.79,1.83,5.6,2.11,7,2.92a24.74,24.74,0,0,1,5.83,4.67c2.87,3.18,4,6.37,5.26,9.93,1.65,4.73,1,5.3,2.92,11.09.4,1.21.35,1,2.92,7.6,2.06,5.33,3.1,8,3.5,9.34,1.44,4.68.9,4.89,2.34,9.93,1.28,4.49,1.87,4.91,3.5,9.92,2,6,3,9.05,2.92,11.68,0,4.69-2.05,4.37-6.42,15.18-3.39,8.39-3,10.72-6.42,14-2.09,2-3.8,2.68-4.09,4.67-.54,3.67,4.45,7.2,5.84,8.17,4,2.82,7.15,3.22,12.84,4.68,10,2.55,8.82,3.51,18.11,5.84a125.93,125.93,0,0,0,16.93,2.92A176.5,176.5,0,0,0,164.52,340c10.88-.25,16.76-.39,24.52-2.33,7-1.74,5.2-2.37,23.36-9.35,12.18-4.67,14.17-4.84,20.44-8.17,8.1-4.3,13.43-7.59,13.43-7.59,4.86-3,6.18-4.11,9.34-5.26,3.8-1.37,6.87-1.52,12.85-1.75,7.19-.28,11.74-.45,17.52,1.17a46.08,46.08,0,0,1,10.51,4.67c2.47,1.35,6.45,3.69,15.77,11.1,7.8,6.19,11.7,9.29,15.76,13.43,7.44,7.56,6.37,8.7,12.85,14.59,5,4.54,5.55,3.8,14.6,11.1,4.45,3.59,8.12,6.84,12.26,10.51,5.6,5,7.72,7.06,12.26,10.51,6.35,4.83,9,5.92,11.68,6.42,2,.38,6.22,1.18,9.93-1.16,3.42-2.16,4.55-5.81,5.25-8.18,1.73-5.83.07-8.76-1.17-20.44-1-9.78,0-9.17-1.16-14s-3.12-8.77-7-16.35c-3.54-6.9-5.31-10.35-7.59-13.43-4-5.38-6.59-7-7-11.1,0-.27-.56-6.12,2.92-8.76,4.26-3.22,9.43,2.23,21,2.92,2.3.14,1.39-.12,19.86-2.92,13.76-2.08,15.07-2.06,18.68-3.5,5.3-2.11,5.92-3.52,13.43-6.42a72.15,72.15,0,0,1,11.68-3.51c4.17-.84,7.7-1.55,12.26-1.16,4.83.4,8.26,1.81,12.27,3.5,3.15,1.33,4.17,2.05,14.6,8.17,6.37,3.75,9.07,5.29,12.26,7A78.31,78.31,0,0,0,533,305c3.95,1.44,6.44,2.33,9.93,2.33,3,0,7,0,9.93-2.92a10.25,10.25,0,0,0,2.92-9.34c-.61-2.33-1.89-2.6-7.59-8.76-4-4.29-4.45-5.35-4.68-6.42a10.17,10.17,0,0,1,2.92-8.76c4.46-4.22,11.32,0,24.53,1.75,16,2.14,36,.05,42-.58,3.79-.4,8.13-1,12.85,1.16,6.29,2.87,8.62,8.47,11.09,7.6,2-.69.83-4.26,3.51-9.93a24.94,24.94,0,0,1,7-8.76c3.93-3.15,7.76-4.14,12.27-5.26,9.51-2.34,9.84.45,23.94-1.16,3-.34,5.23-.73,7.59.58,1.87,1,3,2.73,5.84,9.34,2.38,5.63,3.92,10,4.09,10.51,3.08,8.88,2.74,9.5,4.67,13.43.73,1.51,2.24,3.93,5.25,8.76,4.13,6.63,4.66,7,5.26,7,1.44,0,3.16-2.27,7.59-19.27,2.75-10.55,2.58-11.56,4.67-19.27,3.66-13.46,4.79-12.57,6.43-21,2.18-11.26.28-13.32,3.5-18.69,3.4-5.66,6.76-5.41,9.93-11.68,2.45-4.84,1.31-6.7,2.92-13.43,1.21-5.06,4.11-10.19,9.92-20.43,6.49-11.45,7.18-11,10.51-18.11,3.2-6.78,2.89-7.85,6.43-14.59,3.32-6.34,4.57-7.28,6.42-12.27,2.2-5.94,1.31-7,3.5-10.51,3.18-5,6.56-5.12,7.59-8.76,1.25-4.36-.79-9.91-3.5-10.51-2.1-.46-4.16,2.16-6.42,4.67-3.8,4.22.44-1.41-18.1,15.19-9.32,8.33-14,12.5-18.69,17.51-2.06,2.2-1,1.17-11.68,13.44-10.4,11.94-11.24,12.72-14,16.35-1.68,2.18-4.62,6.51-10.51,15.18L702.91,204c-1.83,2.72-3.91,5.84-7,9.92s-4.81,6.33-6.42,7.59c-4.4,3.44-9.34,3.36-15.77,3.51-19.67.46-26,2.44-39.12,0-4.11-.77-7.61-1.73-9.93-4.67-3.08-3.91-1.15-7.58-4.09-9.93-2.69-2.16-6.92-1.13-14,.58-4.59,1.11-6.66,2.08-9.34,2.92-5.79,1.82-11.33,1.63-22.19,1.17a195.45,195.45,0,0,1-22.78-2.33A173,173,0,0,1,533,208.64c-12.19-3.37-11.24-4.69-19.27-6.43-10.61-2.29-12.51-.06-25.69-2.92-6.61-1.43-10.13-2.85-13.43-5.25a29.6,29.6,0,0,1-8.18-9.34,34.28,34.28,0,0,1-4.08-16.35c-.51-17.85-.76-26.77,0-36.21,1.46-18.26,3.33-27.95-.59-41.46-1.55-5.35-3.31-8.89-6.42-9.92-3.51-1.17-7.56,1.23-18.69,11.67-11.59,10.89-19.09,17.92-28,30.37-6.17,8.6-9.26,12.9-11.67,18.68-4,9.66-3.7,15.4-9.93,24a29.66,29.66,0,0,1-9.34,8.76,28.46,28.46,0,0,1-12.27,3.5c-82,5.92-120.29,1.17-120.29,1.17-12.89-1.6-24.66-3.46-28.61-4.09-27.28-4.33-31.47-6.25-49.05-8.76-23.85-3.4-22.23-.74-49-4.09-19.78-2.46-17.84-3.54-48.47-7.59a242,242,0,0,0-43.21-1.17C12.47,154,6,155.66,5.1,159Z" transform="translate(-3.54 -78.99)"/></svg>