<svg id="Camada_1" data-name="Camada 1" xmlns="http://www.w3.org/2000/svg" viewBox="0 0 782.58 252.05"><defs><style>.cls-1{fill:none;stroke:#1d1d1b;stroke-miterlimit:10;stroke-width:3px;}</style></defs><path class="cls-1" d="M14.25,280.47c.47,4.16,3.22,7,4.4,8.25,1.46,1.52,4.56,4.21,14.84,6.59,8.54,2,9,.72,18.69,2.75,7,1.47,5.32,1.82,14.3,3.85,6,1.35,8.4,1.58,11,3.85,3.17,2.78,2.63,5.18,5,7.7,4.2,4.57,12.13,3.35,18.14,2.74,11.3-1.14,22.72.39,34.08.55,12.85.19,9.66.78,33,1.65,12.64.48,16.84.43,29.14,1.1s5.76.6,21.44,1.65c12.64.85,16.29.85,21.43,3.3,3.24,1.54,3,2.1,12.1,9.34,4.08,3.25,9.14,6.94,19.24,14.3,10.91,8,13.37,9.5,15.94,11s5.55,3,11.54,6.05c8.83,4.48,10.57,5.07,12.1,5.5,3.33.92,11.8,3.25,14.84-.55,1.73-2.17,1-5.46.55-7.7s-1.36-4.19-5.5-9.9c-4.36-6-5.37-6.57-8.24-11-3.43-5.27-4.15-7.79-4.4-8.79-.6-2.36-1.78-6.95.55-9.9,1.83-2.32,5-2.62,6.59-2.75,12.43-1,28.12.73,32.44,1.1.74.07.64.05,25.83-1.65,23.78-1.6,26.3-1.74,31.89-2.75,11.85-2.13,17.78-3.19,22.54-5.49a50,50,0,0,1,11.54-3.85c5.88-1.22,8.08-.57,9.34,0,2.66,1.21,2.92,2.92,6.05,6.6A46.83,46.83,0,0,0,465,322.8a54.84,54.84,0,0,0,11.54,6.05c4.86,1.84,7.33,2.73,9.34,1.65,4-2.13,3.87-9.78,3.85-11-.05-4.58-1.65-5.9-.55-8.79.61-1.61,2.25-2.93,5.5-5.5s5.61-4.45,9.34-6a33.52,33.52,0,0,1,7.7-2.2c4.3-.76,4.6-.11,15.94,0,4.49.05,6,0,7.7,1.1s1.83,2.33,4.4,6.05c2.79,4.06,4.19,6.08,6.59,7.15,4.08,1.8,8.5-.18,9.35-.55,4.13-1.84,3.67-4.13,8.79-8.8a41.29,41.29,0,0,1,12.65-7.69,32.49,32.49,0,0,1,7.14-2.2c2.29-.4,5.76-1,8.8,0,4.17,1.35,5.94,5.16,8.24,8.79,1.66,2.62,6.61,7.43,16.49,17,4,3.91,9.21,8.93,16.5,14.85,10.63,8.63,10.37,6.71,19.24,14.29,3.61,3.08,6.43,5.78,11.54,8.24,4.12,2,9.64,4.65,13.19,2.2,3-2.08,3.48-7.05,2.75-10.44-1-4.49-3.71-4.81-8.24-12.1-2-3.28-3.6-5.77-4.4-9.34a24.74,24.74,0,0,1,1.65-14.84c.77-1.87,2.62-5.8,12.09-14.3a167.65,167.65,0,0,1,18.69-14.29c5.52-3.73,5.73-3.56,18.14-11.54,13.28-8.54,14.5-9.66,15.94-11.55,5-6.58,3.75-10.72,9.35-14.84,4.12-3,5.43-1.23,11-4.95,4.62-3.07,4.42-4.78,10.45-9.34,3.57-2.71,3.75-2.19,8.24-5.5,5.46-4,5.15-4.74,8.8-7.14,6.5-4.28,11-4.25,11-6,.07-2.53-8.76-4.67-9.92-5a55.9,55.9,0,0,0-25.29,0c-32.5,7.94-54.42,17.59-54.42,17.59-23,10.14-22.6,12.13-38.48,17.59-14,4.83-16.48,4-31.88,9.9-9.49,3.63-14.77,6.32-25.29,8.79a70.18,70.18,0,0,1-22,1.65c-6.48-.55-11-1-13.74-4.4-1.16-1.43-1.66-3-2.75-14.29-1-10.2-.82-11.5-2.2-12.64-2.5-2.07-8.08-.1-19.24,3.85-8.49,3-12.73,4.5-15.39,7.14-1.62,1.61-3.12,3.64-6,4.4-3.37.87-6.4-.53-7.69-1.1-6.59-2.9-14.07-3.2-20.89-5.5a282.79,282.79,0,0,0-28-7.69c-21.45-4.5-24.95-.82-38.48-6.6-6.34-2.71-8.16-4.62-15.94-7.14-8.44-2.75-11.9-2.31-17-6.05-3.79-2.76-6.09-6-8.8-9.9-3.88-5.54-3-6.34-7.14-12.09-3.56-5-5.29-5.86-5.5-8.79-.15-2.16.67-3.27,3.3-8.8,2.15-4.51,3.48-7.31,4.4-9.89.83-2.36.87-3.27,2.2-15.4,1-9.58,1.26-11.3.55-14.29-.68-2.83-1.7-7.07-4.95-8.79-2.94-1.56-6.61-.48-14.84,3.84-10.24,5.38-15.36,8.07-22,13.75-4.46,3.82-9,9.14-18.14,19.79-8.81,10.28-10.54,13-16.49,18.69-5.2,5-8.95,8.54-14.3,11.54-9.91,5.55-19,5.57-26.38,6.05-15,1-29.31,6.26-44,9.34-47.09,9.88-41.71,9.83-63.22,13.74-25.08,4.57-29.64,4.13-47.82,8.8-7,1.78-16.18,4.67-34.63,10.44,0,0-9.45,3-35.73,12.65-8.84,3.26-17.76,6.65-25.29,14.84C14.24,273.87,14,278.2,14.25,280.47Z" transform="translate(-12.69 -121.63)"/></svg>