<svg id="Camada_1" data-name="Camada 1" xmlns="http://www.w3.org/2000/svg" viewBox="0 0 789.68 320.52"><defs><style>.cls-1{fill:none;stroke:#1d1d1b;stroke-miterlimit:10;stroke-width:3px;}</style></defs><path class="cls-1" d="M10.88,212.32c-.15,2.5,2.28,4.43,6.75,7.88a50.51,50.51,0,0,0,11.82,7.32c6.31,2.77,9.58,2.92,15.19,4.5,7.55,2.11,8.94,3.89,20.83,9.56a235,235,0,0,0,25.88,10.69c10.29,3.5,18.28,5.21,28.14,7.32,13.09,2.8,12,1.83,27.57,5.06,14.15,2.94,16.28,4,25.32,5.07,0,0,2.1.25,17.45,1.69a17.6,17.6,0,0,1,5.62,5.06c3,4.33,2.81,8.61,3.38,13.51.28,2.41,2.06,7.8,5.63,18.57,2.61,7.91,4.43,13.38,7.31,20.25,4,9.54,5,9.76,11.82,24.2,5,10.71,4.45,10.57,8.44,18.57,4.43,8.89,8.14,15.09,11.25,20.26,6.33,10.5,9.25,14.06,10.69,15.75,2.23,2.6.83.65,9,9,4.41,4.5,6.14,6.43,8.44,6.19,2.77-.29,4.52-3.51,5.06-4.5,2.72-5,1.18-9.43-.56-20.26-2.24-13.95-.8-13.51-2.81-19.7-2.46-7.53-4.31-7.31-7.32-15.75-1.39-3.91-1.31-4.86-3.94-18s-2.85-13-4.5-21.95c-1.92-10.46-2.88-15.77-2.81-19.69.15-8.1,2-13.64,4.5-21.38,2.74-8.37,4.64-10.56,6.75-11.82,3.91-2.35,8.41-1.45,10.13-1.13,13.35,2.51,49.21,5.82,74.84,0,6.31-1.43,9.39-2.82,20.26-5.06,8.15-1.68,13.9-2.44,25.32-3.94,28.16-3.71,19.19-.84,29.83-2.81,5.55-1,10.77-2.34,15.19.56,1,.64,2.9,2.86,6.75,7.31,4.23,4.89,5.29,6.46,7.88,7.32a11.55,11.55,0,0,0,6.75,0c4.31-1.19,5.77-4.06,9-6.75,4.1-3.43,8.31-4.26,15.19-5.63,2.9-.58,8.31-.57,19.13-.56,7.19,0,9.24.21,11.82,1.12,3.64,1.3,5.74,3.1,6.75,2.25s.15-4.42-1.69-6.75c-.45-.57-1.92-2.3-6.75-3.94a48.11,48.11,0,0,0-14.07-2.25c-3.65-.78-6.15-3-6.19-5.06-.05-2.61,3.63-4.38,5.07-5.07,3.84-1.84,6.5-1.26,13.5-1.12,11.77.23,12.84-1.24,17.45.56,2,.8,4.17,2.22,8.44,5.06a68.74,68.74,0,0,1,8.44,6.19c3.4,3,3.85,4.31,6.19,5.07a10.44,10.44,0,0,0,7.31-.56c2.26-1.13,2.55-2.48,6.19-7.88,4.14-6.14,4.62-5.69,6.75-9.57,3-5.37,2-6.22,3.94-7.88,2.39-2,6.5-2,14.63-1.68,5.14.17,7.74.27,9.57,1.12,4.3,2,5.46,5.46,9,10.69.84,1.23,4.87,5.51,13,14.07,1.2,1.27,6.65,7,14.63,15.19,6.6,6.74,9.89,10.11,12.38,12.38,8.44,7.73,8.61,6.39,16.32,13.51,5.36,5,8.2,8.31,14.63,12.38,6.2,3.93,8.76,4.11,10.69,3.37,3-1.15,5-4.73,5.06-7.87s-1.81-4.08-3.94-9-1.13-6-2.81-11.25c-1.44-4.48-3.34-7.31-6.75-12.38-4.76-7.08-7-8.14-9.57-14.07a54.57,54.57,0,0,1-2.25-6.75c-1.64-5.58-3.1-10.53-3.38-15.76-.11-2.11-.54-10.19,3.38-17.44,3.36-6.23,7.82-7.91,18.57-14.63,9.93-6.21,4.26-3.61,24.76-17.45s19.57-12,27-18c10.16-8.22,11.56-11.4,20.82-16.88,6.29-3.73,8.6-4,12.38-7.88,5.31-5.44,5.33-9.57,11.25-14.07,5-3.76,9.13-4.06,9-5.07-.25-2-13.85-2.46-27-1.12-4.91.5-16.93,2-34.89,7.88-7.11,2.33-14.59,5.52-29.26,11.81-20.31,8.71-30.46,13.06-38.83,17.45-18.23,9.55-27.34,14.32-33.76,20.26a59.47,59.47,0,0,1-15.76,11.25,49.58,49.58,0,0,1-15.19,4.5,39,39,0,0,1-14.63-.56c-4.45-1.07-8.62-2.06-11.26-5.63-2.19-3-1.14-4.75-3.37-6.75-3.77-3.36-10.4-1.52-11.82-1.13-3.47,1-5.72,2.69-9.57,5.63-5.47,4.18-5,5.23-7.87,6.75-4.3,2.25-8.61,1.66-15.76.57-6.3-1-8.41-2.08-15.76-3.94a172.83,172.83,0,0,0-17.44-3.38c-10-1.31-11.26.18-25.89,0-18.67-.22-15.31-2.63-29.26-2.25-8.36.23-15.5,1.25-20.25-3.38-2-2-2-3.38-4.51-5.06-4.47-3-7.83-.68-14.06-2.25-5.27-1.33-8.67-4.44-11.82-7.32a39.87,39.87,0,0,1-9-12.38,51.28,51.28,0,0,1-5.07-17.44,81,81,0,0,1,0-18c.82-6.33,2-8.34.56-10.13-2.85-3.58-12.05-1.15-17.44,1.13-6.29,2.66-8,5.34-17.44,13.5-13,11.19-13.89,9.62-21.39,17.45-4.77,5-8.94,9.34-12.94,16.32-3,5.2-2.74,6.41-5.06,8.44-4.67,4.07-10,3-21.95,3.94-6.57.52-4.32.8-16.32,2.25-18.35,2.21-35.4,3-42.77,3.37-18.79,1-35.6,3.11-69.21,7.32-30.44,3.81-26.18,4.1-42.2,5.63-21.2,2-31.21,1.76-47.27,5.62-14.59,3.51-17.93,9.9-29.26,10.13a34.86,34.86,0,0,0-15.76,3.94C14.63,207.44,11.06,209.42,10.88,212.32Z" transform="translate(-9.38 -103.77)"/></svg>