<svg id="Camada_1" data-name="Camada 1" xmlns="http://www.w3.org/2000/svg" viewBox="0 0 788.4 192.79"><defs><style>.cls-1{fill:none;stroke:#1d1d1b;stroke-miterlimit:10;stroke-width:3px;}</style></defs><path class="cls-1" d="M7.57,220.88c-.11,2.21,0,8.56,16,24.06,8.14,7.9,13.62,13.22,23,18a61.25,61.25,0,0,0,19.95,6.79c1,.14,1.21.15,10.65.91,7.48.61,11,.83,16.32,1.34,18.34,1.77,15.34,2.94,23,2.81,8.16-.14,13.8-1.5,19.1,2.25,1.9,1.34,3.17,3.16,5.62,6.74,4,5.79,5.31,9.42,8.43,15.73,1.94,3.92,4.66,8.61,10.11,18,5.18,8.91,6.55,10.81,8.43,12.92,2.53,2.85,5.06,4.89,10.11,9a86.11,86.11,0,0,0,11.8,8.43c5.91,3.34,9.22,5.21,11.79,3.93,2.75-1.36,2.36-5.18,3.93-12.36,2.07-9.41,3.93-8.28,7.31-19.66,3.56-12,1.81-14.33,5.62-20.22A30.07,30.07,0,0,1,230,289.42c7.74-4.12,13.92-3,29.21-2.25,19.32,1,29,1.44,36.52,0s13.65-3.73,26.4-5.06c7.92-.82,11.25-.53,14.61.57,7.52,2.46,12.51,8.14,15.73,11.79,6.54,7.44,6.16,11.1,11.23,12.92,3.32,1.19,5.74.43,10.12,2.81,3.47,1.89,3.47,3.2,5.61,3.93,2.87,1,5.9-.33,15.73-7.3s14.85-10.52,18-14.6,2.95-5.24,7.3-10.68c4-5.06,6.21-7.69,10.12-9.55a22.7,22.7,0,0,1,12.92-1.68,28.12,28.12,0,0,1,14,6.18c6.2,4.93,5.31,8.15,12.36,14.6,4.5,4.12,7.89,7.21,11.8,6.74,4.55-.54,5.24-5.36,12.92-14.6a75.7,75.7,0,0,1,15.73-14.61c1.48-1,6.6-3.48,16.85-8.43,8.39-4.05,11.54-5.45,16.29-6.18,4.13-.63,9.5-1.37,12.92,1.69,2.54,2.28,1.91,4.78,3.37,9,2,5.65,5.17,7.11,15.17,16.29,12.12,11.13,9.76,11.15,15.17,14.61,2,1.29.8.29,19.66,8.42A59.52,59.52,0,0,0,622.15,308c5.37,1.06,8.23,1.59,10.11,0,3-2.55-.19-7.38,1.69-14.61,1.32-5.09,4.32-8.15,9-12.92,5.44-5.56,9.66-7.85,17.41-12.92,14.29-9.35,11.58-9.19,19.1-13.49,6.94-4,19.78-11.3,35.39-13.48,3.82-.53,8.91-.91,14-4.49,4.78-3.34,4.18-5.67,8.43-7.87,5.48-2.84,13.08-2.37,18.53.56,4.11,2.21,4.5,4.47,7.31,4.5,2.58,0,3.89-1.87,10.11-8.43,8.59-9.06,10.76-10.37,12.92-11.23,3.93-1.58,6.48-1.12,6.74-2.25.66-2.86-15-8.72-15.73-9-20.24-7.49-40.64-7.93-66.85-6.74-24.43,1.11-36.63,1.84-50,3.93-38.3,6-55.25,15.7-74.71,14.05-4.92-.42-13-1.82-22.48,1.68-5,1.86-6.69,3.74-11.79,4.5-5.84.86-8.36-.88-17.42-2.81-13.71-2.92-14.4-.3-23-3.37-4.75-1.7-11.24-4-15.73-10.12-2.12-2.88-1.21-3.1-6.18-13.48-3.88-8.09-4.52-8.14-5.62-11.8-2.31-7.68-.28-10.15-2.81-12.92-3.39-3.71-11-3.53-16.29-1.12-3.88,1.77-3.25,3.24-14,16.29-5.85,7.07-7.28,8.15-9.55,12.36-2.43,4.5-2.43,6.29-4.5,7.87-5,3.78-13.66,0-18-1.69-1.91-.75-14.57-2.93-39.89-7.3-21.45-3.7-20.44.59-47.75-2.25-23.15-2.4-22.06-5.3-46.07-7.86-17.84-1.91-18-.27-47.75-2.25-24.7-1.65-24.34-2.77-37.64-2.81-13.58,0-23.56,1.11-43.25,3.37-12.59,1.45-21.92,2.85-36.52,5.06-19.54,2.95-29.32,4.41-38.2,6.18-40.66,8.1-32.11,11.95-51.68,14-4.05.43-14.26,1.32-19.67,8.43A12.34,12.34,0,0,0,7.57,220.88Z" transform="translate(-6.05 -160.89)"/></svg>