<svg id="Camada_1" data-name="Camada 1" xmlns="http://www.w3.org/2000/svg" viewBox="0 0 792.26 180.05"><defs><style>.cls-1{fill:none;stroke:#1d1d1b;stroke-miterlimit:10;stroke-width:3px;}</style></defs><path class="cls-1" d="M6.84,289.25c-.44,2.47-1.35,7.62,1.14,12,1.64,2.87,4.36,4.71,15.42,8,11.58,3.44,17.38,5.16,25.69,5.71,9.56.63,10.62-.92,21.69,0,6.17.52,5.84,1,15.41,2.29,13.48,1.81,20.21,2.71,28,2.28,8.54-.48,11.26-1.91,16.56,0,3.81,1.37,6.2,3.6,10.85,8,2.7,2.56,5.52,5.56,15.41,18.27,5.81,7.47,6.44,8.5,9.13,11.42,4.85,5.25,7.31,7.91,11.42,10.27,2.47,1.42,10.23,5.73,20,4,2.89-.51,10.85-1.93,14.84-8.57,2.47-4.1,2.35-8.42,2.29-10.84-.1-3.44-1.21-6.48-3.43-12.56-2.1-5.75-3.15-8.62-5.14-11.42a84,84,0,0,0-6.28-7.42c-.27-2.42-.2-5.51,1.72-7.42,3.09-3.08,8.14-.24,18.84.57,7.88.6,7.58-.76,22.83-.57,8.67.11,11.67.58,14.84,2.28,3.74,2,3.88,3.65,9.14,8.57,3.93,3.68,7.57,6.07,14.84,10.84,7,4.58,10.46,6.87,15.41,9.14a73.31,73.31,0,0,0,18.27,5.71c9.26,1.52,15.41,2.52,20-1.15,4.37-3.51,5.22-9.63,5.71-13.13,1.2-8.66-2.26-11.69,0-14.84,2.68-3.74,8.82-1.23,22.26-1.71,4.8-.17,4.22-.5,24-3.43,0,0,11.1-1.64,24.55-3.42,18.84-2.5,27.81-.39,67.93.57,17.56.42,32.14.74,51.95,0,15.61-.59,30.13-1.68,38.24-2.28,18.36-1.38,25.28-2.29,44.53-3.43,18.52-1.09,25.67-1.05,34.25,0,9.7,1.19,10.34,2.32,20.56,3.43a156.6,156.6,0,0,0,32.53,0,152.53,152.53,0,0,0,28.55-5.14c9.21-2.7,15.15-4.52,21.12-9.71,5.46-4.74,4.71-6.9,9.13-9.13,8.39-4.24,14.14,2,22.27-2.28,5.2-2.72,7.64-7.76,9.13-10.85,2-4.12,4.67-9.65,2.28-14.27-2.72-5.29-11.58-5.64-16.55-5.71-26.32-.4-51.37,6-61.08,8.56-35.64,9.34-38.51,10.62-52,13.13-8.24,1.54-14.08,2.36-28,5.14-8.62,1.72-15.06,3.15-26.26,5.14-2.78.49-7.73,1.36-13.7,2.28-24.57,3.77-37,5.57-45.1,1.14-5.58-3.05-8.89-7.37-12-11.41C536,272,530.45,264.78,529.75,255c-.35-5,.61-9.67-2.28-15.41a9.73,9.73,0,0,0-4-4.57c-3.35-1.81-7.18-.59-9.13,0-17.28,5.28-17.72,2.06-26.83,6.85-9.72,5.11-9.22,8.77-21.69,15.42a99.49,99.49,0,0,1-11.42,5.13A55.63,55.63,0,0,1,443,265.85a40.33,40.33,0,0,1-14.27-.57c-19.5-3.33-23.74,1.91-40-2.86-5.88-1.72-10.45-3.13-14.27-7.42-4.55-5.1-5.41-11.36-6.28-17.7-1.43-10.38,1.11-12.49-1.14-22.26a99.65,99.65,0,0,0-3.43-10.85c-2.15-6.11-2.82-6.89-3.42-7.42-4.6-4-13.47-.72-15.42,0-6.83,2.55-10.34,6.56-15.41,11.42a212.13,212.13,0,0,1-26.26,20.55c-6.06,4.07-13.12,8.8-23.4,12.56a96.27,96.27,0,0,1-40,5.14c-10.15-.8-10-2.59-22.83-4.57-11.26-1.73-19.27-1.65-38.25-1.14-30.09.81-45.13,1.21-49.66,1.71-17.6,1.95-30.58,5-50.81,9.71,0,0-13.11,2.71-37.11,9.7-10.4,3-21.33,6.49-28.54,15.42A26.71,26.71,0,0,0,6.84,289.25Z" transform="translate(-4.81 -193.31)"/></svg>