<svg id="Camada_1" data-name="Camada 1" xmlns="http://www.w3.org/2000/svg" viewBox="0 0 793.92 315.01"><defs><style>.cls-1{fill:none;stroke:#1d1d1b;stroke-miterlimit:10;stroke-width:3px;}</style></defs><path class="cls-1" d="M5.47,222.15a15,15,0,0,0,.7,9.16c.94,2.24,3.8,7.47,22.55,13.38,15.94,5,20.47,3.34,29.58,9.16,5.78,3.69,4.67,4.82,10.57,8.45,7,4.33,12.33,5,26.07,7.75,22.12,4.43,18.88,4.77,29.58,6.34,11.84,1.75,24.2,2.56,28.18,2.82,0,0,6.46.42,24,3.52,5.07.9,9,1.7,11.28,4.94s.51,5.55,1.4,12c.26,1.82.71,3.89,7.75,18.32,2.89,5.91,4.34,8.87,6.34,12.68,3.14,5.95,6.5,12.31,11.28,19.72,7.72,12,8.37,10,14.09,19.73a74.29,74.29,0,0,0,9.15,13.38c5.07,5.77,7.77,6.77,9.87,7a11.43,11.43,0,0,0,9.86-3.52c3.73-4.37,2.14-11.33,1.41-14.8,0,0-5.18-24.6.7-64.81.36-2.44,1.18-7.36,4.93-9.86,4-2.68,9.28-1.22,11.27-.71,3.34.85,14.67.81,37.34.71,5.54,0,16.84-1.66,39.45-4.93,10.31-1.5,16.56-2.52,29.59-4.23,27.67-3.63,5.15.24,29.59-2.11,5.21-.51,10.13-1.06,15.49,1.41,1.28.58,1.68.92,9.87,7,16.37,12.24,6.11,4.4,10.56,7.75,7.19,5.41,8.41,6.63,10.57,6.34,3.94-.53,6.29-5.46,7.05-7.05,2.56-5.38.63-8.21,2.11-15.49a28.35,28.35,0,0,1,4.93-12c5.2-6.8,13.26-8.79,17.61-9.86,9.58-2.37,10.81.79,18.32-2.12s9.2-7.07,14.09-6.34c3.2.49,2.93,2.38,9.16,6.34,1.83,1.17,1.89,1,14.09,6.34,6.31,2.75,7.4,3.28,9.15,2.82,4.92-1.27,7-8.13,7-8.45,1.44-5.09-1.1-7.06.7-11.27,1.25-2.92,3.53-4.46,6.34-6.34,4.86-3.26,9.44-4.18,13.39-4.93,5.87-1.12,10.88-2.07,16.2,0,3.57,1.39,4.32,3,8.45,6.34,5.34,4.32,7.9,4.75,21.14,11.27,4.31,2.12,8.74,4.47,17.61,9.16,15.16,8,18.09,10,24.66,11.27,4.86.93,12.42,2.26,16.9-2.12,1.8-1.75,3.65-4.95,2.82-7.75-1-3.34-4.84-2.77-9.86-7-3.64-3.09-5.4-6.59-7.75-11.27a64.63,64.63,0,0,1-4.23-11.27,53.69,53.69,0,0,1-2.11-8.46c-.75-8.49,11.27-16,20.43-22.54,16.75-11.92,9.06-9.85,35.93-31,22.53-17.74,22.49-14.9,34.52-24.65a39.67,39.67,0,0,1,10.56-6.34c7.31-2.93,10.38,0,14.09-2.82,4.11-3.14,2.54-7.81,6.34-16.2,3.36-7.42,8.56-9,7.75-11.27-1.4-3.87-16.5-1.69-18.32-1.41-66.69,10-105.66,40.86-105.66,40.86-9.65,7.63-69,56-78.91,57.06a19.65,19.65,0,0,1-7.74-.71c-3.41-1.18-3.47-2.55-6.34-3.52-5-1.7-7.51,1.63-11.28,0-2.38-1-3.46-3.5-5.63-8.45a67,67,0,0,1-4.23-14.09c-1.95-9.58-1-10.85-2.82-12.68-4.1-4.07-12.72-1.6-18.31,0-5.09,1.45-12.39,3.54-17.61,9.86-2.65,3.2-3.35,5.78-7,7.75a39.56,39.56,0,0,1-8.45,2.82c-8.29-5.5-12-7.05-12-7.05-6-2.52-11.74-1.92-23.25-.7-10,1-13.83,2.73-18.31,0-2.21-1.35-2.24-2.35-6.34-5.64a63.37,63.37,0,0,0-9.86-6.34c-3.43-1.71-6.5-2.53-22.55-4.22-13.9-1.47-14.16-1.13-19-2.12-4.61-.94-8.71-2.27-16.91-4.93-9.77-3.17-15.55-5.5-17.61-6.34-7.1-2.91-10.72-4.41-14.09-7a46.27,46.27,0,0,1-9.15-9.87,54.74,54.74,0,0,1-4.94-8.45c-2.19-4.67-1.86-5.71-4.22-10.57-2.47-5.07-3.3-4.9-3.52-7-.47-4.39,3-5.31,4.22-11.27.6-2.86-.23-2.47-.7-12-.35-6.84,0-8.55-1.41-9.88-2.28-2.13-6.73-1.07-9.86,0-27.69,9.45-45.09,31-45.09,31C247.05,138,250.48,152,233.72,159.45c-6.17,2.73-7.15,1.06-28.18,2.82C184.83,164,169.71,167,154.11,170a551.36,551.36,0,0,0-56.36,14.09c-26.24,8.17-25.79,10.43-43,14.09a166.89,166.89,0,0,0-28.88,8.45C12.27,212.07,7,216.39,5.47,222.15Z" transform="translate(-3.54 -77.1)"/></svg>