<svg id="Camada_1" data-name="Camada 1" xmlns="http://www.w3.org/2000/svg" viewBox="0 0 794.08 286.09"><defs><style>.cls-1{fill:none;stroke:#1d1d1b;stroke-miterlimit:10;stroke-width:3px;}</style></defs><path class="cls-1" d="M5.57,230.86c-1.23,3.91,0,7.49.67,9.42,2,5.77,7.14,11.61,13.45,12.78,3.63.67,4.87-.71,8.07.67s4.28,3.82,6.73,6.73c3.28,3.89,6.64,5.73,12.1,8.74,6.63,3.64,12.35,4.86,18.16,6.05a161,161,0,0,0,26.9,2.69c9.59.3,12-.24,14.79,2,4.2,3.41,2.38,7.72,5.38,17.48.66,2.15,1.43,4.14,12.11,22.2C130,329.86,133,335,134,336.45c7.85,11.41,14.21,17.1,21.52,23.54,5.27,4.64,9.12,7.35,14.12,7.39,1,0,6,.05,8.74-3.36,3.13-3.87,1.4-9.67.68-12.1-2.48-8.3-7.55-9.68-12.11-16.82-1.42-2.21-1.65-3.21-5.38-22.86-3-15.65-4.41-23.61-2-30.26,2.3-6.41,5.54-8.2,6.73-8.75,3.91-1.8,8.07-.41,9.41,0,12.75,3.93,62.62,9.52,98.19.68,16.52-4.11,16.78-8.05,32.28-10.09,16.54-2.18,22.55,1.48,38.33-3.36A126.62,126.62,0,0,1,362,255.75c8.75-1.61,14.19-1.49,19.5,0a29.41,29.41,0,0,1,6.73,2.69c8.23,4.59,7.91,9.95,16.81,18.16,5.32,4.9,9.4,6.63,12.78,7.39,2.25.51,6.85,1.54,8.74-.67s-.53-5.08-2-14.12c-.9-5.49-1.44-9,0-12.78a16.78,16.78,0,0,1,6-7.4c27.59-20.14,41.38-30.21,50.44-34.3,29.52-13.29,21.58-19.69,60.53-42.36,48-27.92,86.49-33.66,115.67-49.77,4.2-2.32,9.38-5.5,17.49-7.4,10.63-2.49,15.44-.22,26.22-3.36,7.66-2.23,7.63-4.07,14.8-6.72,5.67-2.1,9.24-2.27,33.62-2,12.8.13,25.56-2.77,38.34-2,1.88.11,6.7.45,8.07-2s-1.83-6.93-2.69-8.07c-11.29-15-86.66-1.4-137.87,8.07-4.33.8-14.9,2.46-28.92,5.38-11.58,2.42-27.25,5.69-43.71,10.76-10.69,3.29-23,8.52-47.07,18.83-13.11,5.61-30.74,13.17-54.48,24.21-22,10.25-33.46,15.6-49.09,24.21-17.59,9.7-19.95,13.56-29.59,17.49-4,1.62-9,3.23-13.45,8.07-3.1,3.34-3.6,5.68-6.73,7.4-4.73,2.61-10.27.92-13.45,0-9.5-2.77-19.53-3.58-28.91-6.73-10.32-3.46-12.74-2.06-48.43-4-10.35-.58-26.65.19-45.73-3.37-4.2-.78-10.63-2.14-15.46-7.39-5.89-6.4-6.54-15.45-6.73-18.16-.75-10.52,3.34-16.57,0-19.5-1.88-1.66-4.81-1.16-7.4-.68-4.93.92-10.12,3.42-18.83,12.11-7.87,7.85-8.7,10.87-18.15,20.17-3.76,3.7-5.64,5.54-7.4,6.73-10.25,6.87-22.41,4.83-30.27,4-7.46-.75-23.13,1.29-54.47,5.38-21.83,2.86-12,2.84-41,7.4A122.59,122.59,0,0,0,17,220.78C12.3,222.93,7.21,225.63,5.57,230.86Z" transform="translate(-3.54 -82.8)"/></svg>