<svg id="Camada_1" data-name="Camada 1" xmlns="http://www.w3.org/2000/svg" viewBox="0 0 788.68 155.14"><defs><style>.cls-1{fill:none;stroke:#1d1d1b;stroke-miterlimit:10;stroke-width:3px;}</style></defs><path class="cls-1" d="M9,281.21a18.33,18.33,0,0,0,5.43,13.87c1,1,3.26,3,16.29,6.64,5.28,1.49,7.92,2.23,12.07,3,15.62,3,37.86,4.81,49.48,6,28.55,3,28.49,6,54.91,7.85,9.2.64,13.25.56,22.33,1.81,17.79,2.44,19,5,35.6,7.84,19.51,3.3,22.56.5,39.83,4.83,11.61,2.91,10.25,4.18,20.52,6.64,13.18,3.16,20.65,2.32,44.65,2.41,31.95.12,27.42,1.63,36.81.61,9.83-1.08,21.78-4.56,45.26-11.47,7.7-2.27,15.1-4.56,29.57-9.05C457,311.3,456.81,311,463.39,309.57c22-4.88,22.15-1.42,38.62-6.64,17.79-5.64,26.69-8.47,29-9.66,4.13-2.15,9.33-5.3,15.69-4.22,2.87.49,3.83,1.47,10.26,3.62a90.19,90.19,0,0,0,10.86,3c2.64.49,12.93,2.42,21.73-1.81,7.79-3.76,6.91-8.74,13.88-13.88,2.11-1.56,5.89-3.83,28.36-4.83,13.36-.59,10.43.28,43.45,1.21,9,.25,13.93.32,19.31,3.62,3.91,2.4,4.19,4.13,12.67,14.48,6.87,8.39,12.22,14,15.69,17.5,4.72,4.75,7.28,7.29,11.46,10.26,5,3.51,5.78,3.08,11.47,7.24,4.79,3.51,5.65,4.87,7.84,4.83,4.15-.09,8-5.1,9.06-9.66.92-3.87-.18-7.16-1.21-10.26-1.85-5.54-3.74-5.9-5.43-10.25-.31-.79-3.64-9.75.6-17.5,2.88-5.27,8-7.73,12.07-9.66,4.74-2.26,6.58-1.83,10.86-4.22a31.21,31.21,0,0,0,9-7.85c6.18-8.17,8.81-22.3,1.81-31.38a20.32,20.32,0,0,0-7.84-6c-2-.92-9.27-3.85-24.14,1.21-16.05,5.45-29.62,16.39-33.19,19.31-3.29,2.69-7.27,6.23-13.88,8.44a39,39,0,0,1-13.88,1.81c-9.74-.34-14.55-3.58-25.34-7.24-13.77-4.66-17.49-.82-22.33-5.43s-3.51-9-9.65-13.27a20.9,20.9,0,0,0-11.47-3.62c-2.83,0-3.59.65-12.67,3.62-9.47,3.09-11.11,3.17-12.67,3-4.25-.43-5.52-2.45-10.26-4.82-9-4.52-11.89-1-19.92-4.23-7-2.86-5.11-5.7-18.1-15.69-9.29-7.14-13.48-8.16-16.29-8.45-5.29-.54-8.86,1.16-12.67,2.42-7.21,2.37-16.27,1.78-34.4.6a304.16,304.16,0,0,1-34.4-4.22c-14.14-2.57-18-4.32-30.77-6-16.33-2.2-19.37-3.07-23.54-1.81-8.83,2.67-12.07,8.53-18.7,7.24-4.77-.92-4.71-4.26-10.26-7.24-6.15-3.3-12.06-2.34-27.16,0-12.36,1.92-18.47,2.5-23.53,3.62-20.45,4.53-34.48,3.93-74.83,7.85-36.94,3.58-55.41,5.38-77.84,10.26-15.67,3.41-31.37,8.1-62.76,17.5C64.88,245.22,82.3,241.85,60.29,248c-8,2.23-20,5.41-33.79,13.88C10.92,271.47,9.26,277.91,9,281.21Z" transform="translate(-7.45 -189.47)"/></svg>