<svg id="Camada_1" data-name="Camada 1" xmlns="http://www.w3.org/2000/svg" viewBox="0 0 793.92 328.21"><defs><style>.cls-1{fill:none;stroke:#1d1d1b;stroke-miterlimit:10;stroke-width:3px;}</style></defs><path class="cls-1" d="M4.56,238.21c-.37,6.31,3.87,10.65,4.52,11.29,1.17,1.16,2.43,2,9,4.51,6.87,2.61,10.31,3.91,15.23,5.08a72.33,72.33,0,0,0,15.24,2.26,87,87,0,0,0,11.85-.57c5.55-.51,9.89-1.25,12.41-1.69,7.12-1.23,10.67-1.85,11.85-2.26,2.72-.94,4.33-1.84,6.21-1.12,2.24.86,4,3.72,3.38,5.64-.47,1.41-2.13,1.95-9.59,3.38-10.21,2-11.68,1.83-15.24,3.39a23.31,23.31,0,0,0-7.9,5.08c-1.36,1.4-3.95,4.51-3.95,4.51a18.56,18.56,0,0,0,3.95,5.08c4.18,3.74,9,4.46,13,5.08,6.6,1,13.11,2.73,19.75,3.39,18.24,1.79,15.41,2.7,29.91,3.95,18.82,1.61,21.42-.11,37.81,2.25,3.61.52,9.9,1.45,18.05,3.39,13.09,3.12,12.17,4.38,20.32,5.64,9.27,1.44,13.59.29,22.57,3.39a28.41,28.41,0,0,1,7.9,3.95c4.58,3.35,6.77,7.29,8.46,10.15,0,0,2.59,4.39,12.42,18.06,6.75,9.4,7.49,7.79,17.49,20.32,8.12,10.16,7.46,11,13.54,17.49,2.22,2.36,6.37,6.09,14.67,13.54a53.26,53.26,0,0,0,9.6,7.34c.67.38,1.45.81,8.46,3.95,10.49,4.69,10.43,4.48,12.42,5.64,4.7,2.75,5,3.84,7.9,4.51,2.65.61,4.77.22,9-.56,5.3-1,7.94-1.46,9.6-3.39,2.71-3.15,1.9-7.79,1.69-9-.65-3.73-2.44-5.21-6.21-10.72-3.15-4.6-1.9-3.56-6.77-11.28-3.63-5.76-4.14-6-9-13.54-2.15-3.32-1.45-2.34-6.77-10.73-6.77-10.68-7.07-10.95-7.9-13-2.62-6.41-1.08-7.29-3.95-12.42-1.76-3.15-3.46-4.82-3.38-7.9,0-2,.87-4.82,2.82-5.64s3.7.73,6.77,2.26c1.81.9,10.65,5.29,17.49,2.82,4.05-1.46,3.73-4,7.9-5.08,3.75-1,6.49.43,10.72,1.69,6.08,1.82,10.66,2,18.62,2.26,9.47.33,14.34.5,19.75-2.26,4.39-2.24,5-4.28,9.6-5.64,3.11-.91,6.19-1,12.41,0,9.67,1.5,10.47,2.92,16.93,3.95,7.07,1.13,13.21.56,25.39-.57,6-.55,8.49-1.05,12.42,0,1.14.31,3.52,1.05,11.85,6.78,8.56,5.88,9.14,7.22,13.54,9,3.56,1.46,8.66,3.55,13,1.13a10.39,10.39,0,0,0,4.51-5.64c.94-3.09-.55-4.29-1.13-10.16-.36-3.65-.63-6.47.57-9.59a15.83,15.83,0,0,1,6.2-7.34c3.25-2.14,5.2-1.86,13.55-3.38,7.15-1.31,10.73-2,14.67-3.39,4.44-1.61,6.63-3,12.41-4.51,4.72-1.2,6.44-1.05,7.9-.57,2.07.69,2.28,1.63,6.77,4.52,2.69,1.72,4.06,2.59,5.65,2.82.44.06,4.18.56,6.77-1.69s1.39-4.92,3.38-9.6a20.86,20.86,0,0,1,6.21-7.9c4-2.79,7.45-2,15.8-2.25,4.74-.17,9.55-.86,19.19-2.26,10.2-1.48,12.18-2.38,19.75-2.82,8-.47,11.53.21,14.67,1.69.88.42,3.41,1.69,7.9,6.21,5.26,5.3,7.83,9.64,10.15,13,1.95,2.79,2.07,2.5,18.63,18.62,11.8,11.49,12.72,12.59,16.36,15.23a109.19,109.19,0,0,0,16.36,9.6,103.11,103.11,0,0,0,17.5,7.33c4.72,1.44,9.16,2.09,18.05,3.39,7.27,1.06,9.81,1.09,11.29-.57,1.8-2,1.45-5.84,0-8.46-2.57-4.64-7.21-2.95-13.54-7.34-7.84-5.43-10.9-15.08-11.29-16.36-1.44-4.74-.81-7-3.38-10.72-2.75-4-4.8-3.28-6.78-6.77-2.72-4.84.4-7.56-2.25-13-1.84-3.76-3.76-3.32-6.21-7.34-2.21-3.63-2.44-6.95-2.82-12.41-.44-6.33-.92-13.17,2.82-19.75,2-3.57,2.73-2.54,5.64-6.77,4-5.87,3.67-9.26,7.34-19.75a110.35,110.35,0,0,1,5.64-13.55c2.33-4.65,3-5.16,9.59-15.8,4.4-7.14,6.59-10.71,9-15.23,5-9.21,4-9.07,6.77-13,4.2-5.85,7-6.92,9-12.41,1-2.73,2.41-6.47.57-9.6-2.14-3.62-7.73-3.86-10.16-3.95-5-.16-15.15.91-40.06,22a253.8,253.8,0,0,0-22,20.88c-10.42,11.27-8.92,11.89-18.62,22-15.1,15.74-18.37,13.83-23.14,23.13-2.82,5.51-4.61,11.9-10.16,13.54-2.46.74-4.25.12-7.9-.56-2.3-.43-7.74-.66-18.62-1.13-15-.65-25.2.72-38.37-.56a28.48,28.48,0,0,1-9-2.26,34.41,34.41,0,0,1-9-6.21c-6.05-5.22-5.63-6.81-9.6-9-1.6-.89-6-3.36-10.72-2.25-4.48,1.05-4.56,4.24-9,6.77-5.88,3.34-12.7,1.76-20.31,0-4.12-1-7.88-2.53-15.24-5.64-9.92-4.2-11.41-5.34-17.49-7.9a154.21,154.21,0,0,0-24.83-7.9,159.11,159.11,0,0,0-24.83-4.52c-9.85-.92-10.08.1-19.75-1.13a185.2,185.2,0,0,1-20.31-3.95c-8.69-2-10.89-3-11.85-3.38A37.65,37.65,0,0,1,390,173.89c-3.3-3.79-5-8.36-8.47-17.5a116.28,116.28,0,0,1-5.08-15.8c-2.67-11.44-.65-12.08-3.38-22.57-2.37-9.08-4.08-9.38-4.52-15.8-.38-5.61.67-9.34-1.69-11.28-1.88-1.55-4.93-1.16-8.46,0-10,3.28-16.88,10.42-22.57,16.92-6.88,7.86-12.57,14.36-19.19,24.83-4.49,7.11-7.11,12.41-14.11,22-4.59,6.3-7.83,10-13,12.41-5.41,2.52-10.13,2.27-14.1,2.26-13.76,0-13.43,2.76-36.68,5.64-14.38,1.79-22.14,1.67-33.29,2.26-30.74,1.64-55.06,7-69.41,10.16-29.66,6.53-23.08,8.3-64.33,18.62C56.77,209.79,43,218,27.7,220.16c-3.19.46-13.06,1.73-19.19,9A15.39,15.39,0,0,0,4.56,238.21Z" transform="translate(-3.04 -88.42)"/></svg>