<svg id="Camada_1" data-name="Camada 1" xmlns="http://www.w3.org/2000/svg" viewBox="0 0 786.31 353.05"><defs><style>.cls-1{fill:none;stroke:#1d1d1b;stroke-miterlimit:10;stroke-width:3px;}</style></defs><path class="cls-1" d="M9.52,268.92c1.84,2.48,2.85,3.83,4.29,4.83,4,2.75,7.3.17,14,1.07,1.93.26,5.25,1.79,11.81,4.83,8.93,4.14,9.31,4.67,14.5,7a146.78,146.78,0,0,0,17.18,6.45,138,138,0,0,0,16.1,3.75c10.18,1.76,18,1.91,33.29,2.15,8.41.13,16.9,1.7,25.23.54,4.49-.63,9.65-1.77,12.35,1.07,1.74,1.83,1.23,4,1.61,8.59.34,4.25.91,4,4.29,16.64,3,11.27,2.3,10.45,4.3,17.18,1.63,5.51,3,9.22,5.9,16.65,3.61,9.41,5.42,14.11,8.59,20.4a150.36,150.36,0,0,0,9.13,15.56c3.51,5.25,5.94,8.82,10.2,12.89a38.9,38.9,0,0,0,12.35,8.05c3.15,1.27,5.76,2.28,7.51,1.08,1.27-.87,2.25-3,1.08-10.74-1.36-8.95-3.63-12.35-5.37-18.79-1.36-5-1.44-10.32-1.61-20.94-.21-12.79,1-11.73.53-22-.35-7.48-1.14-10.83,0-17.18,1.39-7.68,4-10.85,4.84-11.81a20.41,20.41,0,0,1,10.2-5.91c12.09-3.36,24.09-1.83,39.19-1.07a299.42,299.42,0,0,0,35.43,0c9.41-.6,14.11-.89,18.79-1.61,5.91-.9,10.33-2,17.71-2.15,8.7-.21,11.31,1,12.35,1.61,1.61.89,3.66,2.41,8.59,10.74,5.24,8.84,4.46,9.69,8.05,15,5.85,8.7,11.39,11.61,12.89,12.35,3,1.5,6.86,3.39,10.2,1.61,2.87-1.52,3.67-5.09,4.29-8.05,1.91-9.08-2.34-11.62-.53-18.79,1.15-4.58,3.94-7.75,7.51-11.81a76.93,76.93,0,0,1,8.59-8.06,42.7,42.7,0,0,1,4.83-3.75c2.14-1.24,4.91-2.24,15.57-2.15,9,.07,13.51.15,16.65,2.15,2.35,1.49,1.88,2.11,6.44,5.9a87.22,87.22,0,0,0,9.12,6.44c6.57,4.28,9.85,6.41,12.89,7.52a36.92,36.92,0,0,0,10.74,2.15c1.51.1,12,.8,12.88-2.15.49-1.67-2.64-2.67-4.83-7.52-.79-1.75-2.4-5.31-1.07-8.05.79-1.63,2.44-2.58,9.66-4.29,9.65-2.29,10.85-1.57,15-3.22,5.55-2.2,4.5-3.88,10.74-7,5.1-2.54,9.27-3.15,17.18-4.3,6.8-1,10.26-1.45,13.42,0,3.54,1.63,5.07,4.37,7.51,8.05,4.71,7.11,10.75,13.24,16.11,19.87,6.95,8.61,10.43,12.91,14,16.1,7.29,6.6,8.06,4.62,27.38,16.65,6.58,4.1,12.86,8.29,22.54,10.73,7.49,1.89,10.42,1.07,11.82-.53,2.18-2.51.71-7,.53-7.52-2.07-6.06-7.73-5.54-14-12.35-3-3.27-1.26-2.93-7.51-12.88-4.94-7.85-6.09-8.18-8.59-13.42a62.18,62.18,0,0,1-4.3-12.35c-1-4-1.68-6.89-1.61-10.74a31.66,31.66,0,0,1,2.69-11.81c3-7.17,6.68-11.07,16.1-22,12.91-15,12.85-15.67,18.26-20.94,4.14-4,3.6-3.08,14-12.34,9.32-8.34,9.84-9.2,19.33-17.72,6.49-5.83,10.64-9.56,16.64-14.5,8.12-6.67,8.59-6.48,15.57-12.34a220.32,220.32,0,0,0,16.65-15c9.58-9.7,9.44-11.7,14.49-14,6.44-2.88,10.21-1.22,14-5.37,2.12-2.36,1.22-3.24,5.37-9.67,2.55-4,4.83-7,4.83-7,3.37-4.48,4.56-5.3,4.29-6.45-.71-3.11-11-3.21-12.34-3.22C755.37,111,729.23,126,718.7,132c-28.68,16.34-15.44,7.8-45.63,25.23-30.38,17.54-45.57,26.31-54.22,32.75-28.1,20.9-42.15,31.35-43,32.21-1.77,1.9-6.59,7.27-14.5,9.66-5.73,1.74-11.16,1.33-14.49,1.08-4.52-.35-4.82-1-15-3.22-11.76-2.61-13.65-2.3-17.18-4.83a16.09,16.09,0,0,1-7-18.26c1.13-4.68,3-4.9,4.29-9.66.62-2.26,2-7.52-.53-10.2-2.34-2.43-6.79-1.54-9.13-1.08-5.54,1.11-8.89,3.78-14,7.52-18.14,13.4-18.07,10.88-24.16,17.18-2.3,2.38-4.24,4.75-8.05,6.44s-7.15,1.75-12.35,1.61c-12.82-.32-17.71-1.07-17.71-1.07-19.31-2.94-16.36-1.23-39.73-4.83-16-2.47-24-3.71-30.6-5.37-9.07-2.29-12.38-3.81-19.33-3.76-8.22.06-11.27,2.24-16.1,0-3.83-1.77-4.1-4.15-10.2-12.35-7.59-10.18-9.66-9.85-12.35-15-2.26-4.35-1.86-7.28-2.15-22.55-.24-12.59-2.21-12-.54-20.4.23-1.11.38-1.65,4.84-14,4.82-13.33,4.87-13.34,5.36-15,.89-3,.52-2.24,3.76-19.86,1.4-7.6,2.06-10.94,0-13.42s-5.3-2.61-6.44-2.69c-10.21-.71-33.53,20.74-56.91,63.89-9.86,18.22-21.73,35.28-32.21,53.15A40.24,40.24,0,0,1,203.32,197c-2.78,2.15-6.58,4.46-14,7-9.49,3.23-16.38,3.9-22.54,4.83-3.92.59-13.71,3.26-33.29,8.59-13.29,3.62-21.12,5.75-32.21,9.13-14.6,4.44-24.94,8-32.75,10.73-14,4.88-21.13,7.37-25.23,9.67-9.26,5.2-11,8.35-17.72,9.12-5.23.6-10-.63-15,2.69-1.14.74-3.6,2.39-3.76,4.83C6.73,265.14,7.66,266.42,9.52,268.92Z" transform="translate(-5.33 -66.62)"/></svg>