<svg id="Camada_1" data-name="Camada 1" xmlns="http://www.w3.org/2000/svg" viewBox="0 0 785.95 259.75"><defs><style>.cls-1{fill:none;stroke:#1d1d1b;stroke-miterlimit:10;stroke-width:3px;}</style></defs><path class="cls-1" d="M9.56,265.63c1,2.12,2.81,2.66,6.57,4.93,4.79,2.88,4.84,3.83,7.67,5.47,6.52,3.78,10.05,1,19.71,3.29,1.81.43,1.36.45,13.14,5.47,9.72,4.14,14.58,6.22,18.61,7.67a154.36,154.36,0,0,0,20.26,5.47c9.78,1.9,20.89,1.66,42.7,1.1,11.69-.31,23.35,1.9,35,1.64,2.55-.06,7.08-.21,10.4,2.74,3.08,2.73,2.58,5.87,4.93,15.87a86.27,86.27,0,0,0,4.92,15.88c2.36,5.37,3.1,5,7.67,13.69s3.72,8.77,6.57,13.13c2.6,4,5.38,6.86,10.95,12.6a100.07,100.07,0,0,0,9.31,8.76,51.45,51.45,0,0,0,9.3,6.57c2.37,1.22,13.39,6.9,18.07,2.73,1.73-1.54,1.89-4.31,2.19-9.85.24-4.45.47-8.69-1.64-13.14-1.9-4-3.73-4-4.38-7.12-.79-3.7,1.27-6.5,3.28-10.4,5.15-10,1.75-11.09,6.57-20.8,4.28-8.62,7.05-7.92,9.31-15.33,1.82-6,.73-8.73,3.28-11.5,3.34-3.62,9.09-3.13,14.78-2.74,20.55,1.41,35.42,1.22,40,1.1a170.13,170.13,0,0,0,22.45-2.19c6.49-1.07,11.81-2.35,22.44-4.93,7.45-1.8,15.05-2.94,22.45-4.93,4.89-1.31,8.36-2.41,12.59-1.09,2.95.92,5.11,2.81,9.31,6.57,5.9,5.27,5.42,6.21,9.31,9.3A44.53,44.53,0,0,0,441,312.71c7.21,2.53,9,1.43,13.14,4.38,1.72,1.23,3.13,2.64,5.48,2.74a7.56,7.56,0,0,0,6-2.74c2.45-3.11,0-6,1.09-11.5.82-4,2.44-3.82,6.57-10.94,4.82-8.32,3.23-9.61,6.57-13.14,3.82-4,8.6-5.2,14.24-6.57,5.08-1.24,9.91-2.43,15.33-.55,3.35,1.16,5.33,3,9.3,6.57,7,6.38,6,8.27,12,13.14a38.82,38.82,0,0,0,12,7.12,43.31,43.31,0,0,1,6,2.19c3.95,1.85,5.52,3.53,7.67,4.92,6.1,4,15.52,4.74,17.52,1.64,1.67-2.59-1.93-7.86-3.29-9.85-4.08-6-7.59-5.77-8.76-9.85-1.23-4.35,1.4-9.33,4.38-12,1-.87,3.07-2.53,12-3.83a76.15,76.15,0,0,1,21.35-.55c5.44.64,9.63,1.14,14.78,3.29,5.34,2.22,6,3.82,16.42,10.95,7.17,4.87,10.76,7.31,14.24,8.76,7.79,3.23,9.26,1.38,19.16,4.92,7.57,2.71,8.07,4.28,13.14,4.93,1.88.24,12.21,1.57,15.33-3.83,2.28-3.95-.22-9.9-2.74-13.14-3.35-4.32-6.63-3.67-9.31-8.21-.38-.66-3.09-5.25-1.64-9.31,1.56-4.37,6.52-4.18,16.43-8.76a113.85,113.85,0,0,0,20.25-12.59c5.9-4.35,6.22-5.3,10.4-7.67a63,63,0,0,1,15.88-6c11.17-3,11.95-1.13,17.52-3.83,5.81-2.81,4.33-4.51,13.14-10.4,6-4,8.42-4.39,13.14-8.76,3.06-2.84,6.57-6.17,6-9.86-.43-2.88-3.15-4.67-4.38-5.47-11.73-7.7-40-2.74-40-2.74-51.33,8.73-49.89,6.07-66.25,11.5-14.89,4.94-23.27,7.72-33.94,13.68-5.47,3.06-10.48,6.35-19.16,9.31C621,233.05,615.13,234,608.5,235c-11.23,1.73-17.43,1.47-21.35,1.1-9.51-.91-12-3.13-13.14-4.38-2.15-2.42-2.53-5.11-3.29-10.41a60,60,0,0,1,0-15.87c.91-6.82,2.24-8.48,1.1-12a14.18,14.18,0,0,0-5.48-7.11c-3-1.81-7.55-2.59-24.63,4.38-9.28,3.78-16.65,6.78-26.28,12.59-7.23,4.35-10.29,7-17,8.76a45.42,45.42,0,0,1-15.33,1.09c-15.38-1-18.67-4.4-36.14-7.66-12.51-2.34-17.66-1.87-29.56-5.48a66.61,66.61,0,0,1-13.14-5.47c-4.26-2.36-8.65-4.78-12.59-9.31-3.28-3.77-2.52-4.7-8.21-15.33-5.29-9.87-6.26-9.66-7.67-14.23-2.51-8.19,0-10.81-2.73-14.24-5-6.24-18.08-3.4-20.81-2.73-3.74.9-7.53,2.45-22.44,13.68-12.62,9.5-14,11.46-21.36,16.43-3.83,2.58-12.28,8.28-21.9,12-14.74,5.78-19,1.84-45.44,4.93-8.46,1-18.41,3-38.32,7.12-7.12,1.46-8.85,1.89-32.3,7.11-41.32,9.21-43.79,9.64-51.46,12s-16.79,6-35,13.14c-27.43,10.75-22.47,9.9-35,14.23-9.35,3.22-17.89,8.68-27.37,11.5-2.84.84-9,2.56-11.5,7.66C9.69,259.38,8.22,262.7,9.56,265.63Z" transform="translate(-7.51 -135.9)"/></svg>