<svg id="Camada_1" data-name="Camada 1" xmlns="http://www.w3.org/2000/svg" viewBox="0 0 783.31 180.99"><defs><style>.cls-1{fill:none;stroke:#1d1d1b;stroke-miterlimit:10;stroke-width:3px;}</style></defs><path class="cls-1" d="M274.39,300c3.85,10.86,3.63,16,5.91,22.43,1.78,5,4.73,8.65,10.62,15.94,8.24,10.19,11.19,10.1,15.35,17.7,4.05,7.43,3.45,11.58,6.49,12.4,5.31,1.44,12.62-9.73,14.76-13a69,69,0,0,0,8.85-21.24c2.92-11.14,1.37-13.27,4.72-20.66,1.67-3.67,4.44-9.78,10-13.58,6.37-4.32,11.48-2.31,27.74-1.77,22,.74,40.13-.59,40.13-.59,8.69-.64,15.68-1.55,20.66,2.95,2.53,2.29,1.82,3.51,5.9,10,3.57,5.68,6.92,10.91,13,14.16,2.47,1.33,7.12,3.82,11.81,2.36s4.08-5.23,8.85-7.67c6.06-3.1,9.29,1.84,18.3-.59a32.79,32.79,0,0,0,11.8-6.49c4-3.17,4.21-4.6,6.49-6.5,5.65-4.7,12.82-3.11,36-.59,6.2.68,10.51,1.09,17.71,1.77,15,1.44,26.61,2.22,28.92,2.37,15.63,1,18.7-.55,49.58-1.78,31.47-1.24,36.11.06,56.07-2.36,8.45-1,15.08-2.25,28.33-4.72,20.86-3.88,25-5.55,28.93-7.67,6.08-3.32,3.62-3.43,18.29-13.58,6.8-4.7,11-7.19,10.57-10-.1-.76-.74-3.08-8.21-5.31-12.93-3.87-25-1.08-34.82,1.18-28.56,6.57-42.84,9.85-46,10.62-13.54,3.25-20.36,4.88-23,5.31-13.53,2.21-24.76,1.86-47.22,1.18-12.34-.37-21.7-1-31.87-5.9-8.73-4.2-10.32-7.8-10.63-10-.35-2.57,1.14-5.69,4.14-11.81,3.39-6.93,4.8-8.16,4.13-9.44-1.56-2.95-11.84-1.53-20.07,1.77-8.51,3.41-9.86,6.83-22.43,13-4.61,2.27-6.92,3.4-10,4.14-9.61,2.28-17.72-.52-21.84-1.77-14.21-4.33-11.89.38-42.5-4.14a267.87,267.87,0,0,1-38.37-9.44c-8.91-2.85-15-5.3-18.88-11.21-2-3-2.9-7.51-4.73-16.53-1.76-8.7-2.64-13-2.36-18.89.31-6.19,1.55-8.34,0-10-3.7-4.07-16.52,2.08-18.3,3-14.19,6.95-24.2,20.07-26,22.43-2.95,3.95-5.08,7.53-10,10.62a27.6,27.6,0,0,1-13,4.13c-4.29.23-6.93-.72-11.21-1.77-3.41-.83-9-1.54-20.07-2.95-9.15-1.16-11.82-.31-30.69,0-24.4.41-26.91-.9-41.91.59-12.51,1.24-18.68,2.94-22.43,4.13-9.65,3.09-9.38,4.84-17.7,7.09-11.31,3.05-13.16.17-26,3.54-5.27,1.38-4.89,1.85-14.75,4.72-5.64,1.64-11.21,3.07-15.35,4.13-5.2,1.34-7.8,2-9.44,2.36-13.61,3-17.42-1.31-32.47,0-11.88,1-16.28,4.31-19.47,1.18-3.48-3.41-2-10.93-1.18-14.75A47.69,47.69,0,0,1,90.24,228c2.25-4.1,3.61-5.13,4.13-8.26.77-4.68-1.09-9.45-2.36-9.45-1,0-1,3.11-3.54,8.27-1.78,3.66-2.44,3.47-5.31,8.26-3.22,5.36-4.82,8-5.32,11.81-.46,3.52.53,4,0,9.44-.37,3.91-.64,6.33-2.36,7.67-2.06,1.61-4.9.62-8.26,0-4.66-.85-3.6.25-17.71.59-9.27.23-13.91.35-19.48,0-7.42-.45-10.81-1.22-14.16,1.18A45.84,45.84,0,0,0,10,263.37c-.14,2,0,4.7,1.78,6.49,2.19,2.23,5.56,1.68,11.21,1.18a210,210,0,0,1,23-.59,103,103,0,0,1,11.8,1.18A60.42,60.42,0,0,1,69,274.58c4.1,1.51,5.29,2.86,5.9,3.54s2.09,2.54,3,7.09c.6,3.12.55,5.64,0,11.8-.92,10.43-1.38,9.82-1.18,13,.35,5.4,1.54,5.22,1.77,11.21.14,3.48-.19,5.51,1.18,6.49s4.2.48,5.42-1.06c1-1.22.68-2.7.49-4.84-.29-3.13.13-6.3,0-9.44-.57-13.87-.24-12.14-.59-15.94-.13-1.41-.47-4.83-.59-9.44-.11-4.13,0-5.93,1.18-7.68a9.67,9.67,0,0,1,4.72-3.54c3.67-1.52,7-1.1,10.62-.59,13.22,1.87,12.28,2.39,15.35,2.36,6.31,0,6.13-2.23,15.35-3.54a41.08,41.08,0,0,1,14.75,0c5.91,1.22,7.37,3.27,12.4,5.31,4.68,1.9,7.2,1.66,27.15,1.18s21.42-.34,23.61,0c8,1.25,8.45,2.72,20.07,4.73,5.42.93,5.42.63,16.52,2.36,17.42,2.71,9.28,2.19,15.35,2.95,3.37.42,5.79.57,8.26,2.36A13.82,13.82,0,0,1,274.39,300Z" transform="translate(-8.42 -189.07)"/></svg>