<svg id="Camada_1" data-name="Camada 1" xmlns="http://www.w3.org/2000/svg" viewBox="0 0 794.08 280.17"><defs><style>.cls-1{fill:none;stroke:#1d1d1b;stroke-miterlimit:10;stroke-width:3px;}</style></defs><path class="cls-1" d="M5.09,223.19c-.11.66-.32,2.75,3.32,7.76,3.19,4.38,8.07,11.09,16.08,12.75,3.24.68,4.22,0,7.76,1.11a22.89,22.89,0,0,1,8.32,5c5.92,5.28,16.45,6.72,29.93,9.42,14.1,2.83,4.88,1.71,36.59,8.87,13.38,3,25,5.49,36.58,7.76,21.26,4.19,32,6.27,37.14,5.55a31.25,31.25,0,0,1,11.09.55c4.68,1.09,6.57,2.74,7.2,3.33,2.11,2,3,4.3,3.89,6.65a39.49,39.49,0,0,1,1.66,6.65c.95,4.58,1.07,4.25,2.22,9.42,1.88,8.49,1.45,8.8,2.77,14.42s2.2,9.38,4.43,13.86c1.87,3.75,2.62,3.82,8.87,12.19,2.43,3.26,5.32,7.35,11.09,15.52,5.18,7.34,6.19,8.9,8.87,11.09a22.5,22.5,0,0,0,11.64,5.54c1.64.21,8.85,1.11,11.64-2.77,1.3-1.8.36-2.87,0-11.64-.26-6.31.15-7.45-.56-11.64a24.85,24.85,0,0,0-2.21-7.76c-2-3.88-3.79-4.4-5.55-7.21-1.9-3.06-1.25-4.9-1.66-13.3-.63-13-2.48-14.6-.55-19.4,1.1-2.76,2.77-4.61,6.09-8.32,3.53-3.93,6.41-7.14,10.54-8.31,4.63-1.32,8.66.56,11.64,1.66,6.67,2.46,16.64,1.83,36.58.55a250.74,250.74,0,0,0,27.72-3.32c12.75-2.27,14.27-3.57,32.71-7.21,13.06-2.58,8.51-1.18,22.72-3.88,9.4-1.79,15.11-3.11,23.29-2.22,4,.44,7.3.83,11.08,2.77,4.85,2.5,5.28,4.85,11.09,7.77,3.37,1.69,7,3.45,10.53,2.21,1.72-.6,2.08-1.44,5.54-4.43s4.83-3.69,7.21-5.55c6.27-4.88,7.29-8.11,11.64-12.19,5.18-4.85,10.55-6.65,17.19-8.87,11.91-4,12.68-.49,26-4.43,6.49-1.92,10.63-4,18.85-5,5.38-.64,8.39-.31,11.08.55,3.57,1.14,3.81,2.32,8.87,4.44a36.12,36.12,0,0,0,10.54,2.77c3.93.36,6.58.6,8.86-1.11,2.61-1.95,2.39-4.95,3.33-7.21,3.87-9.28,30.61-13.44,48.23-2.22,4.78,3,8,6.68,14.41,13.86,5.36,6,5.74,7.58,13.86,17.74,6.47,8.1,9.7,12.15,15,17.19,4.72,4.52,8.39,7.27,15,12.19a157.32,157.32,0,0,0,19.4,12.2c6.56,3.5,10.19,4.84,13.31,3.32a7.16,7.16,0,0,0,3.88-5c.57-3.46-2.44-5.73-5.55-10.53-2.57-4-1.28-3.62-5.54-13.3-3.54-8.06-4.51-8.51-8.31-17.19-2.31-5.27-3.49-8-4.44-11.64a41.82,41.82,0,0,1-1.66-14.41c.52-6.16,2.75-10.2,7.21-18.29,3-5.54,6.21-11.29,12.19-17.19,4-3.95,4.39-3.14,12.75-10,7.51-6.13,7.14-6.73,14.41-12.75,9.54-7.88,9.63-6.4,16.63-12.75,5.9-5.33,7.13-7.55,12.2-10.53.72-.42,4-2.32,8.31-5,5.77-3.57,6.17-4.06,6.1-4.43-.47-2.5-21-.46-25.5,0-14,1.45-27,2.88-43.24,8.31-3.1,1-9.45,3.65-22.17,8.87s-19,7.83-24.39,10.54c-14.72,7.43-22.09,11.15-26.61,17.73-3.64,5.31-4.31,9.5-9.42,12.2-3,1.57-4.82,1.25-14.41,1.11-19.85-.29-22.76.94-27.17-2.22-3.56-2.56-3.93-5-8.31-6.65-5.09-1.93-7.22.35-10.53-1.66-4.66-2.83-2.25-8.41-7.21-12.75-3.55-3.11-9.41-4.3-12.75-2.22-1.11.69-1,1.16-5,6.65a38.75,38.75,0,0,1-3.88,5c-4.1,3.42-10.87,1.4-13.86.55-6.85-1.93-7.67-4.61-13.3-6.65-7-2.53-13.11-1.09-16.63-.55-13.28,2-23.55-3.41-47.67-7.76s-45.82-4.69-77.06-10c-3.91-.66-11.37-2-17.74-7.76-5.93-5.36-8.41-12.26-10-16.63a39.31,39.31,0,0,1-2.77-16.08,43.84,43.84,0,0,1,2.21-11.08c1.92-6.23,3.58-7.83,5-13.86,1.26-5.38,1.89-8.07.56-9.43-3.54-3.61-18.39,4.79-27.17,11.09-9.25,6.65-14.7,13.07-23.83,23.84-8.66,10.2-13,15.3-13.86,20.51-.55,3.27-.71,8.48-3.88,10-2.29,1.08-5-.31-5.54-.56-6.26-2.89-49.81-5.22-145.24,10.53C50.13,195.58,48.61,205.2,27.26,209.33c0,0-6.51,1.26-16.07,7.21C7.72,218.7,5.51,220.54,5.09,223.19Z" transform="translate(-3.54 -102.19)"/></svg>