<svg id="Camada_1" data-name="Camada 1" xmlns="http://www.w3.org/2000/svg" viewBox="0 0 788.63 238.12"><defs><style>.cls-1{fill:none;stroke:#1d1d1b;stroke-miterlimit:10;stroke-width:3px;}</style></defs><path class="cls-1" d="M8.75,248.24c-.1,2.38,1.46,4.36,2.54,5.72,2.41,3.06,5.21,4.23,8.25,5.71,9.72,4.73,7.9,5.76,13.33,7.62,6.81,2.33,8.6.34,15.23,3.17,2.81,1.2,3.53,2,8.26,5.08.36.24,8.53,5.54,16.5,9.52a116.37,116.37,0,0,0,19.68,7.62c4.85,1.39,6.71,1.58,19,3.81,22.87,4.14,20.42,4.21,27.29,5.08,14.84,1.87,15.49.15,26.66,2.54,7.67,1.63,9,2.78,16.51,3.81,7.86,1.07,10.32.35,14.6,2.54,4,2,6.16,4.88,10.16,10.15,5.25,6.94,4.6,8.56,9.52,15.24,4.56,6.18,5.43,5.21,10.79,12.06,5.86,7.48,4.83,8.67,10.16,15.23a62.68,62.68,0,0,0,14,12.7c8.21,5.81,11.19,5.5,12.7,5.08,3.15-.89,4.89-3.71,5.71-5.08,3.85-6.42.32-10.58,1.27-20.95.55-6,2.91-11.6,7.62-22.85,2.75-6.57,3.95-8.24,5.08-9.52,1.84-2.1,6-6,15.87-8.26,13.25-3.05,16.66,1.42,33.64,0,6.06-.5,3.22-.87,18.41-3.17C367,308.75,370.77,309,378.21,306c4.87-2,5.9-3.14,10.79-4.44,5.28-1.41,12-3.21,17.14,0,2.91,1.82,2.18,3.29,7.62,8.25,2.1,1.92,2.56,2,6.34,5.08,7.27,5.87,6.58,6.32,8.89,7.62,7.73,4.35,17.39.43,18.41,0,3.64-1.54,6.24-4.2,11.43-9.53,5-5.11,7.76-8,8.88-12.69.91-3.75-.35-4.07.64-8.89.76-3.73,1.9-9.28,6.35-11.43,3.66-1.76,7.57-.26,8.25,0,3.92,1.51,5.95,4.81,7,6.35,5.19,7.71,12.91,11.9,19.05,15.24,3.85,2.09,10.61,3.3,24.12,5.71,18.32,3.27,21.64,2.56,22.85.64.65-1-.19-4.29-1.9-10.8-2.82-10.72-3-11.21-3.18-12.69-.76-5.59-1.73-12.69,2.54-16.51,3-2.63,7.5-2.89,10.8-1.9,4.76,1.43,6.34,5.3,10.15,10.16,2.09,2.66,8,7.06,19.68,15.87,14.31,10.74,17.38,11.95,19.68,12.69,3.52,1.13,7.21,1.6,14.6,2.54,8.18,1,12.3,1.53,14,0,3.81-3.51-1.62-10.45,1.9-20.31,1.34-3.74,3.27-6,6.35-9.52,3.23-3.73,7.11-7.12,21-15.24,7.84-4.6,12.53-7.35,19.68-10.79,11.87-5.72,12.89-4.84,21-9.52,9.23-5.37,8.47-6.85,15.87-10.16,6.12-2.74,9.59-3,12.69-7,1.48-1.89,2.44-4,5.08-5.08a9.61,9.61,0,0,1,6.35,0c3.64,1.15,4,3.33,8.89,7,3.5,2.6,5.25,3.9,7.61,3.81,4.12-.16,7.1-4.42,8.89-7,.67-1,.69-1.13,5.08-10.16,2.16-4.44,2.41-4.93,3.17-5.71,3.1-3.2,5.88-2.33,7.62-5.08a7.77,7.77,0,0,0,0-7.62c-2-3.42-6.61-4-10.15-4.44-15.12-1.77-22.68-2.65-25.4-2.54-18.66.76-17.65-1.18-36.18-.64-47.52,1.38-124.85,16.47-148.55,30.47A42.62,42.62,0,0,1,556,224.12c-2.82.36-4.49.25-19-1.27-15.23-1.59-16.36-1.78-17.78-3.17-5.16-5.11-3.37-15.87-1.9-24.76,1.57-9.45,3.9-12.25,1.9-15.24-2.93-4.4-11.42-3.49-20.31-2.53-7.79.83-17.12,1.83-27.3,7.61-7.8,4.44-17.77,12.63-20.95,15.24-3.52,2.9-5.09,4.38-8.25,5.71-7.89,3.34-15.68,1.55-19.68.64-6.3-1.45-10.62-3.95-15.87-7-7.11-4.11-10.66-6.17-12.69-8.88-9.15-12.23,6.4-30.45-1.91-40-3.4-3.91-8.86-4.12-17.14-4.44-14.24-.55-25,5.47-29.83,8.25-6.27,3.61-10.53,7.49-19.05,15.24-9.58,8.71-9.88,10.59-14.6,13.33-6.67,3.87-11.84,3.48-26.66,3.81-11.15.24-23.09,1-47,2.54-4,.26-10.74.8-24.12,1.9-27.52,2.26-41.4,3.4-47.61,4.44-10.86,1.82-8.64,2.39-43.17,12.07C93.32,215.94,93.65,215,74.13,221c-32,9.8-28.22,11-37.45,12.06a60.08,60.08,0,0,0-19,6.35C10.43,243.18,8.84,246,8.75,248.24Z" transform="translate(-7.24 -144.5)"/></svg>