<svg id="Camada_1" data-name="Camada 1" xmlns="http://www.w3.org/2000/svg" viewBox="0 0 788.09 295.31"><defs><style>.cls-1{fill:none;stroke:#1d1d1b;stroke-miterlimit:10;stroke-width:3px;}</style></defs><path class="cls-1" d="M9.24,255.27,12,260.08l9.39,7.34,16,3.87,9.39,2.76,11.6,6.08,14.36,6.08,10.5,5.52,13.81,2.77,25.42,3.31,17.68,2.76h23.75l3.32,7.18,3.86,4.42V329.3L175,345.87l5.53,15.47,7.73,14.92,9.94,14.92,8.84,9.39,8.84,8.84,7.74,4.42h10.5l6.62-5,5.53-7.19v-24.3l-4.42-9.4-.55-17.12V325.43l1.65-8.28,21-2.21,36.46-.56,51.38-.55,40.33-.55,10.5,1.1,10.49,8.84,10,5.53,8.29,2.21,8.28-.55,2.77-8.29v-8.29l3.86-6.08,9.95-4.42,12.15-4.42,11.05-1.1,5-5,16-1.11,12.16.56,6.08,4.41,9.39,6.63,6.63,3.87,8.84,1.66,8.28-.55,5-5-4.42-5.52v-6.08l4.42-7.18,9.94-3.87,8.29-3.86,12.15-1.11,6.63,3.32,5,10.49,4.42,6.08,7.74,9.39s11,14.37,12.71,15.47,12.15,14.09,12.15,14.09l9.94,9.67,10,7.18,9.94,2.21,9.4-2.76V329.3l-3.87-8.84-4.42-8.84-3.32-9.39-3.31-9.94-5-8.29,11-11.6,13.25-17.13,14.92-12.15,18.23-16,14.92-14.91,15.47-13.81,7.18-8.29h11l2.76,3.87,5,3.31,4.42-1.1-3.86-12.71,3.86-6.08L786,167.43l5-10,2.77-7.18-17.13-2.21-24.86,6.63-20.44,8.84L696,178.48,659.5,196.71l-24.87,15.47-19.88,16.57-14.92,12.16L591,248.64l-4.42,5-33.15-10.49-2.76-8.84,4.42-6.08,2.76-7.75-8.29-2.75L533,220.45l-9.39,5-11.05,4.42h-11l-11.6-3.32-21.55-3.31-23.75-5.53-27.08-6.08-24.3-3.31L364.48,205l-28.73-5-11.6-3.86-2.21-42.54-1.66-12.71-4.42-6.63-5.52-10-16-2.76-9.39,3.87-18.23,14.92-16,21.54-8.84,17.68L238,186.76l-7.18,8.29-9.39,2.76-13.81,1.11-30.94,3.87-26,4.42-16,4.41-19.89,3.32-22.1,5.51-25.41,6.09-23.76,6.63L23.6,239.8l-10.49,4.42-3.87,4.42Z" transform="translate(-7.74 -120.02)"/></svg>