<svg id="Camada_1" data-name="Camada 1" xmlns="http://www.w3.org/2000/svg" viewBox="0 0 785.84 151.75"><defs><style>.cls-1{fill:none;stroke:#1d1d1b;stroke-miterlimit:10;stroke-width:3px;}</style></defs><path class="cls-1" d="M8.93,270.93a17.36,17.36,0,0,0,.59,8.83,22.25,22.25,0,0,0,6.47,10c3.24,3.05,7.15,5.18,15.89,7.65A134.64,134.64,0,0,0,59,302.12c12.3.72,14.56-.84,20.59,1.77,5.26,2.27,5,4.06,13,8.83a92.87,92.87,0,0,0,17.07,7.65,112.81,112.81,0,0,0,18.25,5.29c8.21,1.54,10.4.65,31.78.59,11.54,0,17.44,0,24.13.59,10.78,1,12.64,2.26,22.37,3.53,11,1.44,11.12.16,35.31.59,20.12.36,23.9,1.31,33.55-.59,9.06-1.78,8-3.07,17.66-5.29,16.83-3.88,22.1-.44,40.61-2.95,11.79-1.59,8.2-2.79,25.3-5.88,16-2.9,21.32-2.24,37.08-5.89a150.73,150.73,0,0,0,18.25-5.3c7.89-2.88,7.5-3.54,11.77-4.7,7.34-2,9.87-.42,25.31,0,14.35.38,14.67-.93,20.6.58,8.46,2.16,8.49,5,17.07,7.07,9.11,2.21,9.74-.82,20,1.17,9.74,1.9,11.82,5.15,18.83,4.12,1.91-.27,8.32-1.21,10.6-5.88,1.81-3.72.15-8.06-.59-10-2.17-5.67-5.47-6.16-5.89-10-.53-4.88,4.23-9.07,5.3-10,3.85-3.39,7.91-4,18.83-5.3,13.43-1.56,20.14-2.35,22.37-2.35,9.52,0,10.12,1.32,27.07,2.94,15,1.43,14.56.41,22.37,1.77,11.54,2,11.89,4.15,25.9,7.65,13.44,3.36,11.85,1.06,29.42,4.71,13.77,2.85,20.66,5.49,24.14,1.76,2-2.14,2.29-5.77,1.76-8.24-1-4.78-5.19-5.51-7.06-10.59a15.17,15.17,0,0,1,0-9.42c2-7.07,8.46-9.45,18.24-15.89,13.46-8.86,10.1-10.2,23-18.24,10.43-6.53,15.65-9.79,23.54-11.19,5.82-1,9.41-.45,14.13-3.53,5.84-3.81,8.1-9.77,8.82-11.77,1.47-4,3.47-9.53.59-13.54-3.11-4.32-11-3.51-15.3-2.94-36.26,4.83-79.46,25.9-79.46,25.9-28.2,13.75-37.91,19.66-50.61,23.54-9.1,2.78-14.77,3-23,8.24-3.29,2.11-6.51,4.72-11.77,5.3-1.22.13-7.32.8-12.36-3-2.71-2-4.2-5.68-7.06-12.94-3.32-8.42-5-12.62-4.71-16.48.42-6.07,3.33-8.31,1.77-11.77s-6.18-4.68-8.83-5.3c-5.84-1.37-11.53-.85-25.31,3.53s-20.64,6.56-26.49,11.18c-7.47,5.91-6.67,9-12.36,13.54-9,7.29-19.8,6.67-38.84,5.88-31.56-1.3-47.33-2-52.38-1.76-26.17,1-38.06,5.49-49.44-2.94a96.88,96.88,0,0,1-12.95-11.78c-6.95-7.76-8.3-12.18-14.71-15.3a25.78,25.78,0,0,0-12.37-2.35c-5.12.16-8.82,1.64-20,7.65C301.15,211.21,289.67,218,289.67,218c-10.89,6.4-11.94,7.22-15.3,8.24-8.16,2.46-14.95,1.52-21.78.58-14-1.91-31.5-4.24-35.31-4.7-7.56-.92-23.58,1.34-55.33,5.88-16.15,2.32-26.49,3.8-41.2,6.48-18.22,3.32-18.77,4-33.54,6.47-19.33,3.18-22.59,2.64-37.08,5.89a109.48,109.48,0,0,0-30.61,12.36C15.12,261.8,10.24,265.25,8.93,270.93Z" transform="translate(-7.08 -181.27)"/></svg>