<svg id="Camada_1" data-name="Camada 1" xmlns="http://www.w3.org/2000/svg" viewBox="0 0 794.45 283.92"><defs><style>.cls-1{fill:none;stroke:#1d1d1b;stroke-miterlimit:10;stroke-width:3px;}</style></defs><polygon class="cls-1" points="1.72 150.26 8.04 158.69 19.99 169.22 38.25 172.74 78.29 172.74 78.29 179.76 56.51 183.98 49.49 189.59 54.41 195.22 71.97 200.83 97.96 207.16 139.4 207.16 167.5 207.16 171.01 219.8 178.03 235.25 185.76 242.98 192.78 242.98 192.78 230.34 199.1 217.69 207.53 217.69 215.96 226.82 227.9 238.06 246.87 253.52 265.13 266.86 282.69 276.7 299.55 282.31 310.79 277.4 301.66 266.16 289.72 242.28 277.78 216.29 267.94 202.24 274.26 195.22 293.23 194.51 317.81 193.81 336.08 188.19 359.96 183.27 380.33 178.36 395.08 176.25 406.32 176.25 412.64 183.27 419.67 187.49 426.69 189.59 430.2 181.17 434.42 176.25 440.04 183.98 446.36 187.49 456.89 179.06 466.03 169.93 477.26 160.09 503.96 159.39 513.09 166.41 522.92 172.03 542.59 172.74 555.23 172.74 548.91 166.41 550.32 156.58 555.23 153.07 593.87 150.26 603.7 153.77 610.73 167.12 628.99 183.27 648.66 199.43 669.03 216.29 685.88 222.61 698.53 224.01 689.4 199.43 679.56 183.98 673.94 167.82 667.62 155.88 672.54 143.24 692.91 115.84 732.24 80.02 756.83 56.84 770.88 48.41 782.12 37.87 792.64 23.82 788.44 16.8 754.02 26.63 706.96 50.52 671.13 71.59 638.82 91.96 614.24 113.73 601.59 122.86 590.36 123.57 567.17 116.54 554.53 111.63 544.7 105.31 540.48 91.96 524.33 91.96 517.3 97.58 506.06 102.5 487.8 100.39 468.13 92.66 439.33 89.85 403.51 83.53 366.98 79.31 333.27 75.8 322.03 65.97 307.98 54.03 298.85 41.38 296.04 28.04 291.12 12.59 286.91 2.05 267.94 11.18 238.44 35.77 218.07 60.35 197.7 71.59 176.63 80.72 135.89 88.45 104.28 95.47 74.07 103.2 43.87 117.95 20.69 129.19 5.24 142.18 1.72 150.26"/></svg>