<svg id="Camada_1" data-name="Camada 1" xmlns="http://www.w3.org/2000/svg" viewBox="0 0 795.82 262.72"><defs><style>.cls-1{fill:none;stroke:#1d1d1b;stroke-miterlimit:10;stroke-width:3px;}</style></defs><path class="cls-1" d="M10.79,240.7c-2.14,2.32-7.11,7.67-6.57,14.35.57,7.17,7.16,11.82,14.34,16.74,6.48,4.43,10.38,5.78,26.91,12.55,21.26,8.71,22.21,9.51,29.88,12,9.18,2.92,7.86,1.79,22.12,6,16.44,4.82,18.17,6.31,26.9,7.77,11.08,1.84,10.08-.26,20.93,1.79,12.18,2.3,14.4,5.14,24.51,5.38,6.23.15,8-.87,11.95.6,5.2,1.91,6.52,5.24,12.56,12a104.72,104.72,0,0,0,18.53,16.14c6.06,4.28,9.73,6.82,15.54,8.36,3.17.85,7.09,1,15,1.2,8.26.25,11.07-.27,13.74-1.79,1.56-.89,5.21-3,5.38-6,.22-3.64-4.84-4.39-9-10.76-1.91-2.95-2.67-6.15-4.19-12.55-1.87-7.91-2.81-11.87-1.79-13.75,3.12-5.77,17-1.2,38.26,0,10.52.59,31.92,1.79,55.59-4.79,10.69-3,14.19-5.4,23.92-6,12.94-.77,23.73,2.53,31.08,4.78,11.08,3.39,14.32,6.56,20.42,11,5.13,3.77,10.66,6.2,13.66,5.1,2.32-.86,3.79-4.12,6.08-11.48,2.4-7.67,2.39-11.73,4.68-14.82,3.6-4.89,8.63-5.67,23.31-9,24.15-5.43,19-5.22,27.5-6.58,19-3,28.63-4.57,40.05-1.19,15.37,4.55,18.53,6,18.53,6,5.91,2.67,9.13,4.94,12.56,3.58,1.09-.43,2.69-1.43,6.57-9.56,4.36-9.13,3.29-9.84,5.38-12.56,2.77-3.59,8.66-5,20.33-7.77,9.69-2.27,14.62-3.39,18.53-2.39,4.55,1.17,7.68,3.75,14.94,12,12.86,14.52,13.23,17.92,22.12,27.5,10.2,11,11.48,8.4,19.13,17.93,4.59,5.72,10.59,10.24,15,16.14,1.23,1.67,2.93,4.09,5.38,4.18,4.15.16,7.44-6.49,8.37-8.36,5.8-11.76.86-23.88.59-24.51-1.63-3.84-2.44-3.4-4.18-7.18-3.5-7.57-2.63-14.51-1.79-22.71,2.93-28.72.75-26,3-32.88,2.89-8.92,6.94-14.73,13.75-24.51,2.88-4.13,4.08-5.44,18.53-22.72,1.16-1.37,9.67-11.55,17.94-21.52,14-16.84,16.34-20,17.93-22.12,10.29-13.82,8-13.12,13.15-18.53,8.77-9.14,15.63-11.39,17.94-19.73.75-2.7,2.5-8.19,0-10.76-6.79-7-38.8,13.5-59.78,26.9-10.75,6.87-23.16,15.48-29.29,19.73-15.53,10.77-14.81,10.77-23.92,16.74-13.85,9.08-17.78,10.55-26.9,17.93a135.13,135.13,0,0,0-14.94,13.75c-9.75,10.53-9.55,13.93-16.14,19.13s-12.87,6.61-23.32,9c-14.28,3.23-27.51,6.21-34.67-.6-3.61-3.44-1.31-6.07-6.21-12.87-3.94-5.47-4.21-9.85-12.15-8.84-7.2.92-13.78,7-15.11,8-4.34,3.26-4.15,5.7-7.18,8.37-5.44,4.8-13.06,3.13-22.12,2.39-27.22-2.23-33.42,6.62-44.83-.6-5.45-3.44-8.51-8.28-12-13.75a82.56,82.56,0,0,1-9.56-22.71c-1.62-7-1.13-10-4.19-13.75-3.38-4.16-8.07-5.58-11.35-6.58a30.94,30.94,0,0,0-17.94,0c-4.59,1.46-7.37,3.63-12.55,7.77-13.49,10.81-21.41,17.55-28.1,22.72-7.38,5.71-11.47,8.87-16.14,11.36-15.62,8.33-30.83,5.45-48.42,3.59-4.12-.44-27.06-.69-72.93-1.2-37.15-.41-49.22.49-56.79,1.2a415.19,415.19,0,0,0-41.25,6c-23,4.6-22.27,6.59-41.84,10.17-15.14,2.76-21.53,2.65-46,7.17C28.41,230.31,18.47,232.43,10.79,240.7Z" transform="translate(-2.68 -94.32)"/></svg>